<svg width="22" height="24" viewBox="0 0 22 24" fill="none" xmlns="http://www.w3.org/2000/svg">
<path d="M12.0691 17.9328L19.5564 22.8045C19.6919 22.8926 19.8519 22.9455 20.0189 22.9574C20.1859 22.9693 20.3533 22.9396 20.5026 22.8717C20.652 22.8039 20.7775 22.7004 20.8652 22.5727C20.953 22.4451 20.9996 22.2982 21 22.1483V1H1V22.1483C1.00037 22.2982 1.04701 22.4451 1.13478 22.5727C1.22254 22.7004 1.34802 22.8039 1.49737 22.8717C1.64671 22.9396 1.81411 22.9693 1.98109 22.9574C2.14808 22.9455 2.30815 22.8926 2.44364 22.8045L9.93091 17.9328C10.2416 17.7307 10.6159 17.6218 11 17.6218C11.3841 17.6218 11.7584 17.7307 12.0691 17.9328Z" fill="#FF8200"/>
<path d="M19.5564 22.8045L19.1473 23.4331L19.1474 23.4332L19.5564 22.8045ZM12.0691 17.9328L12.4781 17.3041L12.478 17.304L12.0691 17.9328ZM9.93091 17.9328L9.52198 17.304L9.52187 17.3041L9.93091 17.9328ZM2.44364 22.8045L2.85257 23.4332L2.85267 23.4331L2.44364 22.8045ZM1.98109 22.9574L1.92791 22.2093L1.98109 22.9574ZM1.49737 22.8717L1.8077 22.189L1.80769 22.1889L1.49737 22.8717ZM1.13478 22.5727L0.51675 22.9976L0.516753 22.9976L1.13478 22.5727ZM1 22.1483H0.249998L0.250002 22.1502L1 22.1483ZM1 1V0.25H0.25V1H1ZM21 1H21.75V0.25H21V1ZM21 22.1483L21.75 22.1502V22.1483H21ZM20.8652 22.5727L21.4832 22.9976L21.4833 22.9976L20.8652 22.5727ZM20.5026 22.8717L20.1923 22.1889L20.1923 22.1889L20.5026 22.8717ZM20.0189 22.9574L20.0721 22.2093L20.0189 22.9574ZM19.9654 22.1758L12.4781 17.3041L11.6601 18.5614L19.1473 23.4331L19.9654 22.1758ZM12.478 17.304C12.041 17.0198 11.5237 16.8718 11 16.8718V18.3718C11.2445 18.3718 11.4757 18.4415 11.6602 18.5615L12.478 17.304ZM11 16.8718C10.4763 16.8718 9.95897 17.0198 9.52198 17.304L10.3398 18.5615C10.5243 18.4415 10.7555 18.3718 11 18.3718V16.8718ZM9.52187 17.3041L2.0346 22.1758L2.85267 23.4331L10.3399 18.5614L9.52187 17.3041ZM2.03471 22.1758C2.00965 22.192 1.97282 22.2061 1.92791 22.2093L2.03428 23.7055C2.32333 23.6849 2.60664 23.5931 2.85257 23.4332L2.03471 22.1758ZM1.92791 22.2093C1.88299 22.2125 1.8408 22.204 1.8077 22.189L1.18703 23.5545C1.45262 23.6752 1.74524 23.726 2.03428 23.7055L1.92791 22.2093ZM1.80769 22.1889C1.77482 22.174 1.75873 22.1564 1.7528 22.1478L0.516753 22.9976C0.686353 23.2443 0.921221 23.4337 1.18704 23.5545L1.80769 22.1889ZM1.7528 22.1478C1.74993 22.1436 1.74933 22.1415 1.74943 22.1419C1.74956 22.1422 1.74999 22.1439 1.75 22.1465L0.250002 22.1502C0.250753 22.4564 0.346439 22.7499 0.51675 22.9976L1.7528 22.1478ZM1.75 22.1483V1H0.25V22.1483H1.75ZM20.25 1V22.1483H21.75V1H20.25ZM20.25 22.1465C20.25 22.1439 20.2504 22.1422 20.2506 22.1419C20.2507 22.1415 20.2501 22.1436 20.2472 22.1478L21.4833 22.9976C21.6536 22.7499 21.7492 22.4564 21.75 22.1502L20.25 22.1465ZM20.2472 22.1478C20.2413 22.1564 20.2252 22.174 20.1923 22.1889L20.813 23.5545C21.0788 23.4337 21.3136 23.2443 21.4832 22.9976L20.2472 22.1478ZM20.1923 22.1889C20.1592 22.204 20.117 22.2125 20.0721 22.2093L19.9657 23.7055C20.2548 23.726 20.5474 23.6752 20.813 23.5545L20.1923 22.1889ZM20.0721 22.2093C20.0272 22.2061 19.9903 22.192 19.9653 22.1758L19.1474 23.4332C19.3934 23.5931 19.6767 23.6849 19.9657 23.7055L20.0721 22.2093ZM21 0.25H1V1.75H21V0.25Z" fill="#FF8200"/>
<path d="M21 16.3406L12.0691 10.5297C11.7584 10.3276 11.3841 10.2188 11 10.2188C10.6159 10.2188 10.2416 10.3276 9.93091 10.5297L1 16.3406" stroke="#FF8200" stroke-width="1.5" stroke-linecap="round" stroke-linejoin="round"/>
</svg>
