<svg width="185" height="27" viewBox="0 0 185 27" fill="none" xmlns="http://www.w3.org/2000/svg">
<g clip-path="url(#clip0_1_8338)">
<path d="M47.8165 5.35158C47.5554 4.77898 47.0986 4.33853 46.5547 3.94212C45.6845 3.30345 44.6621 2.81895 43.5961 2.42254C40.8115 1.38747 37.8529 0.814873 34.8291 0.484531C33.0017 0.286325 31.1743 0.154188 29.3252 0.0660968C26.7799 -0.0660403 24.2129 2.82638e-05 21.6894 0.176211C19.6444 0.308348 17.643 0.550599 15.6416 0.880942C13.3574 1.27735 11.1167 1.8059 9.02826 2.68682C7.9623 3.12727 6.98334 3.65582 6.20018 4.38257C4.98193 5.50574 4.96018 6.84913 6.20018 7.95027C6.67878 8.39073 7.26615 8.76512 7.85352 9.09546C9.41985 9.95435 11.182 10.4829 12.9876 10.9234C14.8585 11.3858 16.7946 11.6942 18.7308 11.9144C19.4704 12.0025 20.2318 12.0685 20.9932 12.1346C22.2332 8.7431 23.4515 5.35158 24.6697 1.98208C24.6697 1.98208 24.6915 1.98208 24.7132 1.98208C24.909 5.41765 25.1048 8.85321 25.3224 12.3108C25.5834 12.3108 25.8227 12.3548 26.062 12.3328C27.5631 12.3108 29.0859 12.2888 30.5869 12.2227C32.8929 12.1346 35.1989 11.8703 37.4614 11.496C39.7021 11.1216 41.8775 10.615 43.9442 9.80019C45.1624 9.31569 46.3154 8.76512 47.1856 7.8842C47.947 7.11341 48.2951 6.27654 47.86 5.32956" fill="white"/>
<path d="M20.1444 12.597C17.4903 12.663 14.8363 12.8612 12.2257 13.2797C9.70223 13.6981 7.24397 14.2707 4.938 15.2177C3.48045 15.8123 2.10992 16.5391 1.08746 17.5962C0.152013 18.5652 -0.261321 19.6223 0.195522 20.8335C0.587103 21.8466 1.41377 22.5953 2.39272 23.234C4.06782 24.3131 6.00397 25.0179 8.02713 25.5684C10.1156 26.141 12.2693 26.5154 14.4447 26.7797C14.7928 26.8237 15.1191 26.8458 15.4672 26.8898C17.2075 22.1108 18.9261 17.3539 20.6665 12.575H20.1444" fill="white"/>
<path d="M39.4406 15.9886C37.548 14.9756 35.4596 14.3369 33.2841 13.8304C31.1957 13.3459 29.0855 13.0376 26.9318 12.8394C26.4097 12.7953 25.8876 12.7513 25.3438 12.7292C25.6266 17.5082 25.8876 22.2431 26.1704 27C26.3445 27 26.475 27 26.5838 27C27.9108 26.8459 29.216 26.7137 30.5431 26.5155C32.9143 26.1412 35.2203 25.5906 37.4175 24.7537C38.9838 24.1371 40.4631 23.4103 41.5943 22.3092C42.9866 20.9658 43.1389 19.4242 42.0294 18.0147C41.3768 17.1779 40.4631 16.5612 39.4624 16.0107" fill="white"/>
<path d="M66.2423 19.4901C67.4388 19.2038 68.0261 18.4991 68.0261 17.42V15.9224C68.0261 14.2707 66.9384 13.4338 64.7847 13.4338H52.8633V25.8988H63.9363C66.7209 25.8988 68.1349 25.0619 68.1349 23.3882V21.8245C68.1349 20.5913 67.504 19.8205 66.2423 19.4901ZM56.3005 20.6133H63.4577C64.0886 20.6133 64.3714 20.7014 64.5019 20.7674C64.7412 20.8996 64.8717 21.1639 64.8717 21.5823V22.5072C64.8717 22.9257 64.7412 23.19 64.5237 23.3221C64.3279 23.4102 63.9798 23.4763 63.4795 23.4763H56.3222V20.6353L56.3005 20.6133ZM64.7847 17.5962C64.7847 17.7944 64.7847 18.3449 63.4577 18.3449H56.3005V15.7022H63.4577C64.7847 15.7022 64.7847 16.2528 64.7847 16.451V17.6182V17.5962Z" fill="white"/>
<path d="M81.1655 13.4559H77.9023L69.9619 25.8988H73.4861L75.0742 23.234H83.6237L85.2771 25.8988H89.2146L81.209 13.4999L81.1655 13.4338V13.4559ZM82.1444 20.7895H76.597L79.4251 16.2307L82.1444 20.7895Z" fill="white"/>
<path d="M104.704 19.9968C104.704 20.239 104.748 20.8337 104.813 21.7366C104.465 21.4283 104.03 21.0759 103.508 20.6795L93.8271 13.5001H93.7836L91.3906 13.478V25.9209H94.5668V19.204C94.5668 18.7855 94.545 18.257 94.4798 17.6403C94.7408 17.8826 95.0454 18.1248 95.3499 18.3671L105.466 25.9209H105.509L107.902 25.943V13.5001H104.726V20.0408L104.704 19.9968Z" fill="white"/>
<path d="M125.589 13.4561H115.451C114.081 13.4561 113.167 13.6543 112.667 14.0727C112.145 14.4911 111.905 15.2839 111.905 16.4512V22.8818C111.905 24.0711 112.166 24.8419 112.667 25.2603C113.189 25.6787 114.081 25.899 115.451 25.899H125.589C126.959 25.899 127.873 25.7008 128.373 25.2603C128.874 24.8198 129.135 24.049 129.135 22.8818V16.4512C129.135 15.2619 128.874 14.4911 128.373 14.0727C127.851 13.6543 126.938 13.4561 125.589 13.4561ZM125.654 23.3663H115.386V15.9006H125.654V23.3663Z" fill="white"/>
<path d="M145.189 21.2962C147.343 21.2962 148.431 20.4593 148.431 18.8076V15.9446C148.431 14.2929 147.343 13.4561 145.189 13.4561H133.246V25.899H136.683V21.2962H139.511L145.015 25.8769L145.059 25.921H150.106L143.754 21.3182H145.168L145.189 21.2962ZM136.683 15.7905H143.732C144.319 15.7905 144.58 15.8565 144.711 15.9226C144.928 16.0327 145.037 16.275 145.037 16.6494V18.1249C145.037 18.4993 144.928 18.7195 144.711 18.8517C144.602 18.9177 144.319 18.9838 143.732 18.9838H136.683V15.8125V15.7905Z" fill="white"/>
<path d="M151.085 15.8786H157.416V25.899H160.896V15.8786H167.249V13.4561H151.085V15.8786Z" fill="white"/>
<path d="M173.491 23.3663V20.5915H180.018V18.257H173.491V15.7905H184.129V13.4561H170.011V25.899H184.26V23.3663H173.491Z" fill="white"/>
<path d="M59.2158 5.7921H54.4733V9.44789H59.2158V8.17057H56.7357V7.17954H60.6951V9.18362C60.6951 9.71217 60.5863 10.0866 60.347 10.2627C60.1294 10.4609 59.6943 10.549 59.0635 10.549H54.5603C53.9294 10.549 53.5161 10.4609 53.2768 10.2627C53.0592 10.0866 52.9287 9.71217 52.9287 9.18362V6.14447C52.9287 5.5939 53.0375 5.24153 53.2768 5.06535C53.5161 4.88917 53.9294 4.77905 54.5603 4.77905H59.0635C59.6726 4.77905 60.0859 4.86714 60.3252 5.04333C60.5645 5.21951 60.6733 5.57187 60.6733 6.0784V6.21054L59.194 6.45279V5.7921H59.2158Z" fill="white"/>
<path d="M63.0449 10.549V4.77905H68.6358C69.6148 4.77905 70.0934 5.15344 70.0934 5.90222V7.26763C70.0934 8.01641 69.6148 8.3908 68.6358 8.3908H67.7874L70.7895 10.5711H68.6141L65.9818 8.3908H64.546V10.5711H63.0449V10.549ZM67.9397 5.74806H64.5242V7.37775H67.9397C68.179 7.37775 68.3313 7.37775 68.44 7.31168C68.5706 7.24561 68.6358 7.11347 68.6358 6.91527V6.21054C68.6358 6.01233 68.5706 5.88019 68.44 5.81413C68.353 5.77008 68.179 5.74806 67.9397 5.74806Z" fill="white"/>
<path d="M73.8568 4.77905V9.46992H78.1859V4.77905H79.7087V9.18362C79.7087 9.71217 79.6 10.0866 79.3607 10.2627C79.1431 10.4609 78.708 10.549 78.0772 10.549H73.9656C73.3347 10.549 72.9214 10.4609 72.6821 10.2627C72.4428 10.0866 72.334 9.71217 72.334 9.18362V4.77905H73.8568Z" fill="white"/>
<path d="M82.1885 10.549V4.77905H87.7794C88.7583 4.77905 89.2369 5.15344 89.2369 5.90222V7.20156C89.2369 7.95034 88.7583 8.32473 87.7794 8.32473H83.6895V10.5711H82.1885V10.549ZM87.0832 5.74806H83.6678V7.31168H87.0832C87.3225 7.31168 87.4748 7.31168 87.5836 7.24561C87.7141 7.17954 87.7794 7.0474 87.7794 6.8492V6.23256C87.7794 6.03435 87.7141 5.90222 87.5836 5.83615C87.4966 5.7921 87.3225 5.77008 87.0832 5.77008" fill="white"/>
<path d="M90.5859 6.14447C90.5859 5.61592 90.6947 5.24153 90.934 5.06535C91.1516 4.88917 91.5866 4.77905 92.2175 4.77905H97.0253C97.6561 4.77905 98.0695 4.86714 98.3088 5.06535C98.5481 5.24153 98.6568 5.61592 98.6568 6.14447V9.18362C98.6568 9.71217 98.5481 10.0866 98.3088 10.2627C98.0912 10.4389 97.6561 10.549 97.0253 10.549H92.2175C91.5866 10.549 91.1733 10.4609 90.934 10.2627C90.7165 10.0866 90.5859 9.71217 90.5859 9.18362V6.14447ZM92.1088 9.46992H97.1123V5.81413H92.1088V9.46992Z" fill="white"/>
<path d="M105.03 10.549V4.77905H111.622V5.77008H106.531V7.28966H109.272V8.34675H106.531V10.549H105.03Z" fill="white"/>
<path d="M114.189 4.77905H112.666V10.549H114.189V4.77905Z" fill="white"/>
<path d="M116.647 10.549V4.77905H117.692L122.282 8.19259C122.608 8.43484 122.847 8.65507 123.022 8.83125C122.978 8.30271 122.956 7.97236 122.956 7.84023V4.80108H124.327V10.5711H123.283L118.497 7.00336C118.301 6.8492 118.105 6.69504 117.953 6.54088C117.996 6.91527 118.018 7.22359 118.018 7.46584V10.5931H116.647V10.549Z" fill="white"/>
<path d="M125.545 10.549L129.243 4.77905H130.701L134.443 10.549H132.746L131.962 9.27171H127.829L127.068 10.549H125.545ZM128.46 8.23664H131.31L129.896 5.88019L128.438 8.23664H128.46Z" fill="white"/>
<path d="M135.683 10.549V4.77905H136.727L141.317 8.19259C141.643 8.43484 141.904 8.65507 142.057 8.83125C142.013 8.30271 141.991 7.97236 141.991 7.84023V4.80108H143.362V10.5711H142.318L137.532 7.00336C137.336 6.8492 137.14 6.69504 136.988 6.54088C137.031 6.91527 137.053 7.22359 137.053 7.46584V10.5931H135.683V10.549Z" fill="white"/>
<path d="M151.302 5.7921H147.213V9.44789H151.302V8.21462L152.825 8.50091V9.18362C152.825 9.71217 152.716 10.0866 152.477 10.2627C152.238 10.4609 151.824 10.549 151.194 10.549H147.3C146.669 10.549 146.255 10.4609 146.016 10.2627C145.777 10.0866 145.668 9.71217 145.668 9.18362V6.14447C145.668 5.5939 145.777 5.24153 146.016 5.06535C146.234 4.88917 146.669 4.77905 147.3 4.77905H151.194C151.824 4.77905 152.238 4.86714 152.477 5.06535C152.695 5.24153 152.825 5.61592 152.825 6.14447V6.69504L151.302 6.91527V5.81413V5.7921Z" fill="white"/>
<path d="M156.632 4.77905H155.109V10.549H156.632V4.77905Z" fill="white"/>
<path d="M159.112 10.549V4.77905H165.791V5.74806H160.635V7.04741H163.637V8.03843H160.635V9.46992H165.856V10.549H159.112Z" fill="white"/>
<path d="M167.814 10.549V4.77905H173.405C174.384 4.77905 174.863 5.15344 174.863 5.90222V7.26763C174.863 8.01641 174.384 8.3908 173.405 8.3908H172.557L175.559 10.5711H173.384L170.751 8.3908H169.316V10.5711H167.814V10.549ZM172.709 5.74806H169.294V7.37775H172.709C172.949 7.37775 173.101 7.37775 173.21 7.31168C173.34 7.24561 173.405 7.11347 173.405 6.91527V6.21054C173.405 6.01233 173.34 5.88019 173.21 5.81413C173.123 5.77008 172.949 5.74806 172.709 5.74806Z" fill="white"/>
<path d="M176.951 6.14447C176.951 5.61592 177.06 5.24153 177.299 5.06535C177.539 4.88917 177.952 4.77905 178.583 4.77905H183.391C184.021 4.77905 184.435 4.86714 184.674 5.06535C184.913 5.24153 185.022 5.61592 185.022 6.14447V9.18362C185.022 9.71217 184.913 10.0866 184.674 10.2627C184.456 10.4389 184.021 10.549 183.391 10.549H178.583C177.952 10.549 177.539 10.4609 177.299 10.2627C177.082 10.0866 176.951 9.71217 176.951 9.18362V6.14447ZM178.474 9.46992H183.478V5.81413H178.474V9.46992Z" fill="white"/>
</g>
<defs>
<clipPath id="clip0_1_8338">
<rect width="185" height="27" fill="white"/>
</clipPath>
</defs>
</svg>
