<svg width="28" height="20" viewBox="0 0 28 20" fill="none" xmlns="http://www.w3.org/2000/svg">
<path fill-rule="evenodd" clip-rule="evenodd" d="M8 1C8 0.447715 8.44771 0 9 0H25C26.6569 0 28 1.34315 28 3V12C28 13.6569 26.6569 15 25 15H23C22.4477 15 22 14.5523 22 14C22 13.4477 22.4477 13 23 13H25C25.5523 13 26 12.5523 26 12V3C26 2.44772 25.5523 2 25 2H9C8.44771 2 8 1.55228 8 1ZM0 8C0 6.34315 1.34315 5 3 5H17C18.6569 5 20 6.34315 20 8V17C20 18.6569 18.6569 20 17 20H3C1.34315 20 0 18.6569 0 17V8ZM3 7C2.44772 7 2 7.44772 2 8V17C2 17.5523 2.44772 18 3 18H17C17.5523 18 18 17.5523 18 17V8C18 7.44772 17.5523 7 17 7H3ZM5 14C4.44772 14 4 14.4477 4 15C4 15.5523 4.44772 16 5 16H9.5C10.0523 16 10.5 15.5523 10.5 15C10.5 14.4477 10.0523 14 9.5 14H5Z" fill="#BBBBBB"/>
</svg>
