<svg width="95" height="95" viewBox="0 0 95 95" fill="none" xmlns="http://www.w3.org/2000/svg">
<path d="M62.3333 3H77C85.2843 3 92 9.71573 92 18V32.6667M32.6667 3H18C9.71573 3 3 9.71572 3 18V32.6667M32.6667 92H18C9.71572 92 3 85.2843 3 77V62.3333M62.3333 92H77C85.2843 92 92 85.2843 92 77V62.3333M27.7222 57.3889C32.6667 69.75 53.4333 79.1445 67.2778 57.3889M52.4444 52.4444C45.0278 52.4444 42.5556 52.4444 45.0278 27.7222" stroke="white" stroke-width="6" stroke-linecap="round"/>
<rect x="22.2937" y="22.9161" width="9.95804" height="14.9371" rx="4.97902" fill="white"/>
<rect x="62.126" y="22.9161" width="9.95804" height="14.9371" rx="4.97902" fill="white"/>
</svg>
