<svg width="24" height="25" viewBox="0 0 24 25" fill="none" xmlns="http://www.w3.org/2000/svg">
<path d="M12.1823 2.05435C11.7295 2.05435 11.2914 2.21536 10.9555 2.50631L3.52426 8.90724L3.46584 8.95809L1.61973 10.5484C1.04135 11.0456 0.848564 11.8196 1.12314 12.5173C1.39772 13.215 2.07541 13.667 2.8495 13.667C2.95597 13.667 3.04229 13.7533 3.04229 13.8598V22.2147C3.04229 23.1978 3.86895 24 4.8884 24H19.0702C20.0867 24 20.9163 23.2006 20.9163 22.2147V13.9036C20.9163 13.7729 21.0222 13.667 21.1529 13.667C21.9182 13.667 22.593 13.2235 22.8705 12.5343C23.1509 11.845 22.9669 11.0767 22.406 10.5739L20.9937 9.30836L20.2467 8.63903C19.8233 8.25965 19.5814 7.71801 19.5814 7.1495V5.52882C19.5814 4.54579 19.6684 1 18.6519 1H16.9144C16.6301 1 16.3605 2.25644 16.1197 3.55787C15.8649 4.93442 14.7922 5.0611 14.1304 3.82743L13.5982 2.83507C13.4905 2.63432 13.3547 2.4444 13.1602 2.32589C12.8701 2.1492 12.5319 2.05435 12.1823 2.05435Z" fill="white" stroke="white" stroke-width="2"/>
</svg>
