<svg width="165" height="49" viewBox="0 0 165 49" fill="none" xmlns="http://www.w3.org/2000/svg">
<path d="M12.5435 48.4473L3.66675 48.4345L3.73869 3.02734L14.4447 3.04532L14.4216 18.9881C16.5233 17.4321 19.1593 16.4153 22.3889 16.4204C32.1263 16.4359 38.1923 23.7589 38.1795 32.5225C38.1641 41.3374 32.1263 48.6425 22.3889 48.6245C19.1619 48.6194 15.6138 47.5384 13.4093 45.3841L12.5435 48.4473ZM21.2173 40.8803C26.8645 40.8906 28.3804 36.1609 28.3855 32.5045C28.3906 28.9559 26.8928 24.2237 21.243 24.2134C15.5958 24.2031 14.0799 28.9867 14.0748 32.5353C14.0696 36.0839 15.5701 40.8726 21.2173 40.8803Z" fill="white"/>
<path d="M42.0697 16.6789L42.0149 48.4978L52.3433 48.5156L52.3981 16.6967L42.0697 16.6789Z" fill="white"/>
<path d="M89.793 48.5756L79.4107 48.5576L79.4389 31.3514C79.4466 27.1584 78.3213 24.6831 74.285 24.6754C70.2487 24.6703 69.0078 27.2483 69.0026 31.2796L68.9744 48.5396L58.646 48.5216L58.6999 16.6925L67.5099 16.6796L68.3783 19.6119C70.8037 17.1444 73.2804 16.5025 76.6153 16.5076C84.7932 16.5204 89.7339 20.8316 89.7699 31.4233L89.793 48.5756Z" fill="white"/>
<path d="M145.058 16.6283C156.786 16.6463 161.593 24.4495 161.578 32.7817C161.565 41.1165 156.601 48.9043 144.981 48.8837C133.36 48.8632 128.424 41.06 128.44 32.7252C128.455 24.3931 133.311 16.6052 145.037 16.6258L145.058 16.6283ZM144.78 41.0882C150.427 41.0985 151.943 36.3688 151.948 32.7124C151.954 29.1638 150.456 24.4316 144.808 24.4213C139.159 24.411 137.645 29.1946 137.64 32.7432C137.635 36.2892 139.133 41.0779 144.78 41.0882Z" fill="white"/>
<path d="M40.872 13.1312C40.5175 13.1312 40.1938 12.9232 40.0473 12.5971C39.8957 12.2582 39.9677 11.8628 40.2272 11.5983C40.5252 11.2927 41.2446 10.4993 41.6865 9.79833C40.7718 8.77638 40.4327 7.44375 40.4327 6.50911C40.4327 2.91947 43.3539 0 46.9432 0C50.5324 0 53.4537 2.91947 53.4537 6.50654C53.4537 9.03829 51.9661 11.3595 49.6614 12.4174C48.6517 12.9181 47.2977 13.1569 45.6457 13.1261C42.3545 13.067 40.9234 13.1286 40.9106 13.1286C40.8977 13.1286 40.8849 13.1312 40.872 13.1312ZM42.9711 11.2953C43.6777 11.2953 44.5743 11.303 45.6817 11.321C47.0305 11.3466 48.1327 11.1643 48.8701 10.7946C48.8804 10.7895 48.8881 10.7843 48.8984 10.7818C50.5684 10.0166 51.65 8.33988 51.65 6.50654C51.65 3.91574 49.5407 1.80509 46.9457 1.80509C44.3534 1.80509 42.2415 3.91317 42.2415 6.50654C42.2415 7.23577 42.5909 8.29623 43.3616 8.89707C43.6802 9.14613 43.7933 9.57494 43.6417 9.94725C43.4644 10.3863 43.1664 10.8588 42.8478 11.2953H42.9711Z" fill="#E2760C"/>
<path d="M124.342 35.9605H103.089C103.089 36.6537 104.245 41.0394 111.637 41.0394C115.794 41.0394 119.26 40.115 122.032 39.4243L122.726 39.6554V47.0426C120.185 47.7359 116.49 48.8888 110.715 48.8888C99.1658 48.8888 93.6213 42.1948 93.6213 33.1899C93.6213 23.4943 98.9345 16.5667 109.098 16.5667C120.878 16.5667 125.038 24.185 125.038 34.1117C125.038 34.805 124.807 35.4957 124.807 35.4957L124.342 35.9605ZM115.103 29.7261C115.103 26.2623 113.256 23.4943 109.096 23.4943C105.861 23.4943 103.089 25.8027 102.858 29.7261H115.103Z" fill="white"/>
</svg>
