<svg width="24" height="24" viewBox="0 0 24 24" fill="none" xmlns="http://www.w3.org/2000/svg">
<circle cx="12" cy="12" r="11.5" fill="white" stroke="#F5F5F5"/>
<mask id="mask0_174_1351" style="mask-type:luminance" maskUnits="userSpaceOnUse" x="0" y="0" width="24" height="24">
<circle cx="12" cy="12" r="11.5" fill="white" stroke="white"/>
</mask>
<g mask="url(#mask0_174_1351)">
<path fill-rule="evenodd" clip-rule="evenodd" d="M16 0H24V24H16V0Z" fill="#E3283E"/>
<path fill-rule="evenodd" clip-rule="evenodd" d="M0 24H8V0H0V24Z" fill="#128A60"/>
<path fill-rule="evenodd" clip-rule="evenodd" d="M10.2857 11.4286C10.2857 11.113 10.0298 10.8572 9.71425 10.8572C9.39866 10.8572 9.14282 11.113 9.14282 11.4286C9.14282 12.4588 9.69313 13.3938 10.5677 13.9013C10.8407 14.0597 11.1904 13.9668 11.3487 13.6938C11.5071 13.4208 11.4142 13.0711 11.1413 12.9128C10.6156 12.6077 10.2857 12.0472 10.2857 11.4286ZM14.8571 11.4286C14.8571 11.113 14.6013 10.8572 14.2857 10.8572C13.9701 10.8572 13.7142 11.113 13.7142 11.4286L13.7115 11.5268C13.6801 12.0802 13.3849 12.5781 12.9219 12.8742C12.6561 13.0442 12.5784 13.3976 12.7484 13.6635C12.9185 13.9293 13.2718 14.007 13.5377 13.837C14.3529 13.3156 14.8571 12.4148 14.8571 11.4286Z" fill="#8C9157"/>
<ellipse cx="12" cy="10.8571" rx="1.14286" ry="1.71429" fill="#C59262"/>
</g>
</svg>
