<svg width="18" height="22" viewBox="3 1.5 18 22" fill="none" xmlns="http://www.w3.org/2000/svg">
<path fill-rule="evenodd" clip-rule="evenodd" d="M9.68695 19.5548C10.2115 19.3846 10.7768 19.6653 10.9498 20.1818C10.9699 20.242 11.0196 20.3176 11.1178 20.3821C11.2173 20.4474 11.3514 20.4902 11.5 20.4902C11.6486 20.4902 11.7828 20.4474 11.8822 20.3821C11.9804 20.3176 12.0302 20.242 12.0503 20.1818C12.2232 19.6653 12.7886 19.3846 13.3131 19.5548C13.8376 19.7251 14.1227 20.2819 13.9498 20.7985C13.7796 21.3068 13.4342 21.7304 12.9916 22.021C12.5502 22.3108 12.027 22.4599 11.5 22.4599C10.973 22.4599 10.4498 22.3108 10.0084 22.021C9.56586 21.7304 9.22044 21.3068 9.0503 20.7985C8.87739 20.2819 9.16243 19.7251 9.68695 19.5548Z" fill="white"/>
<path fill-rule="evenodd" clip-rule="evenodd" d="M12 2.7627C12.5523 2.7627 13 3.20363 13 3.74754V5.71724C13 6.26116 12.5523 6.70209 12 6.70209C11.4477 6.70209 11 6.26116 11 5.71724V3.74754C11 3.20363 11.4477 2.7627 12 2.7627Z" fill="white"/>
<path fill-rule="evenodd" clip-rule="evenodd" d="M12 6.70206C10.7116 6.70206 9.47992 7.19604 8.575 8.06906C7.67078 8.9414 7.16668 10.1202 7.16668 11.3449C7.16668 13.7996 6.86551 15.4451 6.54084 16.5065C6.53632 16.5213 6.53179 16.536 6.52726 16.5505H17.4099C17.0988 15.5222 16.8333 13.9014 16.8333 11.3449C16.8333 10.1202 16.3292 8.9414 15.425 8.06906C14.5201 7.19604 13.2885 6.70206 12 6.70206ZM12 4.73236C10.1943 4.73236 8.45845 5.42421 7.17544 6.66199C5.89173 7.90045 5.16668 9.58453 5.16668 11.3449C5.16668 13.6431 4.88451 15.0928 4.62585 15.9384C4.49661 16.3609 4.37318 16.6329 4.29337 16.7854C4.25343 16.8617 4.22422 16.9085 4.21037 16.9296C4.20707 16.9346 4.20463 16.9382 4.20311 16.9404C3.97693 17.2342 3.93595 17.6287 4.09881 17.9622C4.26538 18.3033 4.61569 18.5202 5.00001 18.5202H19C19.4262 18.5202 19.8056 18.2542 19.945 17.8575C20.0743 17.4897 19.9709 17.0846 19.6881 16.8207C19.6819 16.8126 19.6718 16.7988 19.6585 16.7785C19.6031 16.6937 19.4916 16.4952 19.368 16.1193C19.119 15.3621 18.8333 13.9248 18.8333 11.3449C18.8333 9.58453 18.1083 7.90045 16.8246 6.66199C15.5416 5.42421 13.8057 4.73236 12 4.73236ZM4.21691 16.9229C4.21692 16.9229 4.21694 16.9229 4.21696 16.9229C4.21758 16.9221 4.21821 16.9213 4.21883 16.9205L5.00001 17.5354C4.21883 16.9205 4.21835 16.9211 4.21786 16.9217L4.21696 16.9229L4.21692 16.9229L4.21691 16.9229Z" fill="white"/>
</svg>
