<svg width="32" height="32" viewBox="0 0 32 32" fill="none" xmlns="http://www.w3.org/2000/svg">
<path fill-rule="evenodd" clip-rule="evenodd" d="M6.16509 22.1263C4.19504 20.2036 3.00095 17.6848 3.00095 14.9275C3.00095 14.6239 3.01542 14.3232 3.04381 14.0259C1.23784 12.8894 1.21938 11.0229 1.2096 9.72218C1.20869 9.60118 1.53367 9.51852 1.58964 9.6258C2.09319 10.591 2.69579 11.4403 3.47047 11.982C4.97379 7.37768 9.91454 4 15.7777 4C17.5788 4 19.2928 4.31873 20.8469 4.89385C21.1662 5.01199 21.5213 4.96861 21.828 4.82081C21.9397 4.76697 22.0592 4.71558 22.1869 4.66686C25.0296 3.58211 27.6613 5.71165 28.1014 6.50571C28.3383 6.93322 28.0308 6.9375 27.3886 6.94643C26.838 6.95409 26.0413 6.96516 25.1308 7.24936C25.0444 7.27633 25.0249 7.38642 25.0919 7.44736C26.2283 8.482 27.1316 9.70602 27.7303 11.0581C27.9011 11.4438 28.2731 11.7106 28.6949 11.7106H28.8252C29.9298 11.7106 30.8252 12.6061 30.8252 13.7106V15.8789C30.8252 16.9835 29.9298 17.8789 28.8252 17.8789H28.8079C28.3755 17.8789 27.9967 18.159 27.832 18.5589C27.1109 20.3099 25.8829 21.8566 24.2988 23.07C23.9307 23.3519 23.7709 23.8376 23.9335 24.2717L24.592 26.029C24.7858 26.5461 24.5237 27.1225 24.0065 27.3163L21.1151 28.3997C20.5979 28.5935 20.0216 28.3314 19.8278 27.8142L19.2693 26.324C19.0948 25.8581 18.6048 25.5952 18.1134 25.6728C17.3561 25.7924 16.5754 25.855 15.7777 25.855C14.4704 25.855 13.2089 25.687 12.0212 25.375C11.5489 25.251 11.0438 25.4526 10.817 25.8851L9.75643 27.9072C9.49991 28.3963 8.89548 28.5849 8.40637 28.3284L5.66702 26.8917C5.17792 26.6352 4.98937 26.0307 5.24588 25.5416L6.38405 23.3715C6.60095 22.9579 6.49929 22.4525 6.16509 22.1263Z" fill="url(#paint0_linear_904_1096)"/>
<circle cx="1.05691" cy="1.05691" r="1.05691" transform="matrix(-1 0 0 1 24.4605 8.80432)" fill="url(#paint1_linear_904_1096)"/>
<path fill-rule="evenodd" clip-rule="evenodd" d="M12.4341 7.68064C14.772 6.85485 16.6774 7.34554 17.8292 7.81185C18.1014 7.92206 18.3924 7.73112 18.4792 7.38537C18.566 7.03962 18.4156 6.66999 18.1434 6.55978C16.8714 6.04481 14.7504 5.49846 12.1569 6.41455C11.8816 6.51178 11.7205 6.87403 11.7971 7.22365C11.8736 7.57327 12.1588 7.77787 12.4341 7.68064Z" fill="url(#paint2_linear_904_1096)"/>
<defs>
<linearGradient id="paint0_linear_904_1096" x1="43" y1="15.5" x2="8.83526" y2="1.62829" gradientUnits="userSpaceOnUse">
<stop stop-color="#F5C61E"/>
<stop offset="1" stop-color="#FF8200"/>
</linearGradient>
<linearGradient id="paint1_linear_904_1096" x1="0" y1="1.05691" x2="2.11381" y2="1.05691" gradientUnits="userSpaceOnUse">
<stop stop-color="white" stop-opacity="0.8"/>
<stop offset="1" stop-color="white" stop-opacity="0.2"/>
</linearGradient>
<linearGradient id="paint2_linear_904_1096" x1="18.5038" y1="6.88224" x2="11.778" y2="6.88224" gradientUnits="userSpaceOnUse">
<stop stop-color="white" stop-opacity="0.8"/>
<stop offset="1" stop-color="white" stop-opacity="0.2"/>
</linearGradient>
</defs>
</svg>
